# xmcd CD database file
#
# Track frame offsets:
#	150
#	20807
#	33882
#	52005
#	77104
#	100948
#	119199
#	145443
#	171956
#	191852
#	209386
#
# Disc length: 3185 seconds
#
# Revision: 1
# Processed by: cddbd v1.5.1PL0 Copyright (c) Steve Scherf et al.
# Submitted via: CDex 1.51
#
DISCID=a90c6f0b
DTITLE=Memphis La Blusera - 25 Años
DYEAR=2004
DGENRE=Blues
TTITLE0=Blues de las 6 y 30
TTITLE1=La flor más bella
TTITLE2=Perro llorón
TTITLE3=Ya no me toques
TTITLE4=Exactamente medianoche
TTITLE5=Pálido y duro
TTITLE6=Tonto rompecabezas
TTITLE7=Montón de nada
TTITLE8=Sopa de letras
TTITLE9=Gin y cerveza
TTITLE10=A punto de estallar de amor
EXTD=YEAR: 2004
EXTT0=
EXTT1=
EXTT2=
EXTT3=
EXTT4=
EXTT5=
EXTT6=
EXTT7=
EXTT8=
EXTT9=
EXTT10=
PLAYORDER=
